<?xml version="1.0" standalone="no"?>
<!DOCTYPE svg PUBLIC "-//W3C//DTD SVG 20010904//EN"
 "http://www.w3.org/TR/2001/REC-SVG-20010904/DTD/svg10.dtd">
<svg version="1.0" xmlns="http://www.w3.org/2000/svg"
 width="260.000000pt" height="260.000000pt" viewBox="0 0 260.000000 260.000000"
 preserveAspectRatio="xMidYMid meet">
<metadata>
Created by potrace 1.11, written by Peter Selinger 2001-2013
</metadata>
<g transform="translate(0.000000,260.000000) scale(0.100000,-0.100000)"
fill="#000000" stroke="none">
<path d="M74 2575 c-80 -48 -75 49 -72 -1290 3 -1151 4 -1191 22 -1218 10 -16
36 -37 57 -48 37 -18 70 -19 1219 -19 1164 0 1181 0 1220 20 26 13 47 34 60
60 20 39 20 56 20 1217 0 1145 -1 1179 -20 1221 -15 33 -29 47 -62 62 -42 19
-76 20 -1223 20 l-1180 0 -41 -25z"/>
</g>
</svg>
